<svg width="18" height="18" viewBox="0 0 18 18" fill="none" xmlns="http://www.w3.org/2000/svg">
<path d="M8.89498 0.666626C11.1591 0.666626 11.4416 0.674959 12.33 0.716626C13.2175 0.758293 13.8216 0.897459 14.3533 1.10413C14.9033 1.31579 15.3666 1.60246 15.83 2.06496C16.2537 2.48154 16.5816 2.98545 16.7908 3.54163C16.9966 4.07246 17.1366 4.67746 17.1783 5.56496C17.2175 6.45329 17.2283 6.73579 17.2283 8.99996C17.2283 11.2641 17.22 11.5466 17.1783 12.435C17.1366 13.3225 16.9966 13.9266 16.7908 14.4583C16.5822 15.0148 16.2542 15.5188 15.83 15.935C15.4133 16.3586 14.9094 16.6864 14.3533 16.8958C13.8225 17.1016 13.2175 17.2416 12.33 17.2833C11.4416 17.3225 11.1591 17.3333 8.89498 17.3333C6.63081 17.3333 6.34831 17.325 5.45998 17.2833C4.57248 17.2416 3.96831 17.1016 3.43665 16.8958C2.88025 16.687 2.37625 16.3591 1.95998 15.935C1.53615 15.5184 1.20825 15.0145 0.999146 14.4583C0.792479 13.9275 0.653312 13.3225 0.611645 12.435C0.572479 11.5466 0.561646 11.2641 0.561646 8.99996C0.561646 6.73579 0.569979 6.45329 0.611645 5.56496C0.653312 4.67663 0.792479 4.07329 0.999146 3.54163C1.20768 2.98511 1.53565 2.48106 1.95998 2.06496C2.37637 1.64099 2.88034 1.31307 3.43665 1.10413C3.96831 0.897459 4.57165 0.758293 5.45998 0.716626C6.34831 0.677459 6.63081 0.666626 8.89498 0.666626ZM8.89498 4.83329C7.78991 4.83329 6.7301 5.27228 5.9487 6.05368C5.1673 6.83508 4.72831 7.89489 4.72831 8.99996C4.72831 10.105 5.1673 11.1648 5.9487 11.9462C6.7301 12.7276 7.78991 13.1666 8.89498 13.1666C10 13.1666 11.0599 12.7276 11.8413 11.9462C12.6227 11.1648 13.0616 10.105 13.0616 8.99996C13.0616 7.89489 12.6227 6.83508 11.8413 6.05368C11.0599 5.27228 10 4.83329 8.89498 4.83329ZM14.3116 4.62496C14.3116 4.34869 14.2019 4.08374 14.0065 3.88839C13.8112 3.69304 13.5462 3.58329 13.27 3.58329C12.9937 3.58329 12.7288 3.69304 12.5334 3.88839C12.3381 4.08374 12.2283 4.34869 12.2283 4.62496C12.2283 4.90123 12.3381 5.16618 12.5334 5.36153C12.7288 5.55688 12.9937 5.66663 13.27 5.66663C13.5462 5.66663 13.8112 5.55688 14.0065 5.36153C14.2019 5.16618 14.3116 4.90123 14.3116 4.62496ZM8.89498 6.49996C9.55802 6.49996 10.1939 6.76335 10.6627 7.23219C11.1316 7.70103 11.395 8.33692 11.395 8.99996C11.395 9.663 11.1316 10.2989 10.6627 10.7677C10.1939 11.2366 9.55802 11.5 8.89498 11.5C8.23194 11.5 7.59605 11.2366 7.12721 10.7677C6.65837 10.2989 6.39498 9.663 6.39498 8.99996C6.39498 8.33692 6.65837 7.70103 7.12721 7.23219C7.59605 6.76335 8.23194 6.49996 8.89498 6.49996Z" fill="white"/>
</svg>
