<svg width="19" height="18" viewBox="0 0 19 18" fill="none" xmlns="http://www.w3.org/2000/svg">
<g clip-path="url(#clip0)">
<circle cx="9.89502" cy="9" r="9" fill="white"/>
<path d="M14.124 4.111L3.467 8.14335C3.467 8.14335 2.96315 8.30986 3.00215 8.61695C3.0422 8.9246 3.45335 9.06533 3.45335 9.06533L6.13489 9.93562C6.13489 9.93562 6.94428 12.4955 7.10358 12.9826C7.26288 13.4683 7.39068 13.4798 7.39068 13.4798C7.53903 13.542 7.67388 13.443 7.67388 13.443L9.40637 11.9199L12.1065 13.9166C12.8369 14.2238 13.1027 13.5837 13.1027 13.5837L15 4.35468C15 3.73994 14.124 4.111 14.124 4.111ZM12.2373 12.8414L9.34862 10.7059L8.45223 11.4937L8.64933 9.81766L12.4998 6.5L7.25118 9.33288L4.92304 8.57741L13.8056 5.21625L12.2373 12.8414Z" fill="#5DAEC0"/>
</g>
<defs>
<clipPath id="clip0">
<rect width="18" height="18" fill="white" transform="translate(0.89502)"/>
</clipPath>
</defs>
</svg>
