<svg width="16" height="14" viewBox="0 0 16 14" fill="none" xmlns="http://www.w3.org/2000/svg">
<path fill-rule="evenodd" clip-rule="evenodd" d="M15.895 2.2265C15.3646 2.49169 14.7459 2.66849 14.1271 2.75689C14.7459 2.40329 15.2763 1.78451 15.453 0.988929C14.8343 1.34252 14.2155 1.60771 13.5083 1.78451C12.9779 1.16572 12.1823 0.812134 11.2984 0.812134C9.61879 0.812134 8.20443 2.2265 8.20443 3.90606C8.20443 4.17125 8.20443 4.34805 8.29283 4.61324C5.72929 4.52484 3.43095 3.19887 1.92819 1.34252C1.66299 1.78451 1.4862 2.3149 1.4862 2.93368C1.4862 3.99445 2.01658 4.96683 2.90056 5.49722C2.37018 5.49722 1.92819 5.32042 1.4862 5.14363C1.4862 6.64639 2.54697 7.88396 3.96134 8.23755C3.69614 8.32595 3.43095 8.32595 3.16576 8.32595C2.98896 8.32595 2.81216 8.32595 2.54697 8.23755C2.90056 9.47512 4.04973 10.3591 5.4641 10.4475C4.40332 11.2431 3.07736 11.7735 1.66299 11.7735C1.3978 11.7735 1.13261 11.7735 0.955811 11.7735C2.28178 12.6574 3.96134 13.1878 5.64089 13.1878C11.2984 13.1878 14.3923 8.41434 14.3923 4.25965C14.3923 4.08285 14.3923 3.99445 14.3923 3.81766C14.9227 3.37567 15.453 2.84528 15.895 2.2265Z" fill="white"/>
</svg>
