<svg width="25" height="14" viewBox="0 0 25 14" fill="none" xmlns="http://www.w3.org/2000/svg">
<path d="M24.8286 12.5199C24.7995 12.4573 24.7724 12.4053 24.7473 12.3637C24.3309 11.6138 23.5351 10.6933 22.3606 9.60193L22.3357 9.57694L22.3233 9.56468L22.3108 9.55212H22.2981C21.7651 9.04394 21.4275 8.70225 21.2861 8.52732C21.0275 8.19408 20.9695 7.85676 21.1109 7.51499C21.2108 7.25676 21.5859 6.71142 22.2355 5.87823C22.5772 5.43667 22.8478 5.08277 23.0477 4.81614C24.489 2.90002 25.1138 1.67559 24.9221 1.14238L24.8477 1.01777C24.7976 0.942755 24.6685 0.874128 24.4605 0.811541C24.252 0.749086 23.9855 0.738757 23.6605 0.78038L20.0618 0.805239C20.0035 0.784581 19.9203 0.786507 19.8118 0.811541C19.7035 0.836576 19.6493 0.849137 19.6493 0.849137L19.5867 0.880431L19.537 0.918026C19.4953 0.942886 19.4495 0.98661 19.3995 1.04911C19.3497 1.11139 19.3081 1.18448 19.2748 1.26777C18.883 2.27577 18.4375 3.21295 17.9376 4.07928C17.6293 4.59586 17.3463 5.04355 17.0877 5.42262C16.8295 5.80155 16.6129 6.08074 16.4381 6.2597C16.2631 6.43884 16.1051 6.58235 15.9632 6.69077C15.8215 6.79922 15.7134 6.84504 15.6385 6.82828C15.5634 6.81152 15.4927 6.79489 15.4258 6.77826C15.3093 6.70324 15.2155 6.60122 15.1448 6.47211C15.0738 6.34299 15.026 6.18049 15.001 5.98472C14.9762 5.78881 14.9615 5.62031 14.9573 5.47864C14.9534 5.33714 14.9552 5.13699 14.9636 4.87877C14.9723 4.62041 14.9762 4.44561 14.9762 4.35396C14.9762 4.03735 14.9824 3.69373 14.9947 3.32302C15.0073 2.95232 15.0175 2.6586 15.0261 2.44221C15.0346 2.22561 15.0385 1.99645 15.0385 1.75485C15.0385 1.51326 15.0238 1.32379 14.9947 1.18627C14.966 1.04893 14.922 0.915619 14.8639 0.786375C14.8054 0.657263 14.7199 0.557386 14.6077 0.486484C14.4953 0.415669 14.3555 0.359472 14.1891 0.317718C13.7476 0.217798 13.1853 0.163746 12.502 0.155342C10.9526 0.138711 9.95707 0.238762 9.51555 0.455365C9.34061 0.546882 9.18231 0.671924 9.04076 0.830098C8.89077 1.01344 8.86985 1.11349 8.97813 1.12995C9.47804 1.20483 9.83194 1.38397 10.0402 1.66719L10.1153 1.81726C10.1737 1.92554 10.232 2.11724 10.2903 2.3921C10.3486 2.66696 10.3862 2.97101 10.4027 3.30407C10.4443 3.9123 10.4443 4.43296 10.4027 4.86608C10.361 5.29937 10.3216 5.63668 10.284 5.87827C10.2464 6.11987 10.1902 6.31564 10.1153 6.46554C10.0402 6.61549 9.99029 6.70713 9.96525 6.7404C9.94026 6.77366 9.91943 6.79462 9.90289 6.80285C9.79461 6.84434 9.68199 6.86548 9.56544 6.86548C9.44872 6.86548 9.30717 6.8071 9.1406 6.69042C8.97406 6.57373 8.80123 6.41346 8.62209 6.20933C8.44295 6.00516 8.24092 5.71984 8.01591 5.35333C7.79108 4.98683 7.55781 4.55367 7.31621 4.05385L7.11633 3.69137C6.99137 3.45818 6.82068 3.11863 6.60408 2.67304C6.38734 2.22727 6.19577 1.79608 6.02924 1.37955C5.96267 1.20461 5.86266 1.07143 5.72939 0.979782L5.66685 0.942186C5.62527 0.908923 5.55853 0.873603 5.46697 0.835963C5.37527 0.798367 5.2796 0.771407 5.17955 0.754819L1.7557 0.779679C1.40582 0.779679 1.16843 0.858941 1.04343 1.01725L0.993406 1.09213C0.968415 1.13384 0.955811 1.20046 0.955811 1.29215C0.955811 1.3838 0.980802 1.49628 1.03083 1.62946C1.53065 2.80417 2.07419 3.93708 2.66146 5.02836C3.24872 6.11965 3.75905 6.99871 4.19212 7.66476C4.62528 8.33128 5.0668 8.96035 5.51669 9.55164C5.96657 10.1432 6.26436 10.5222 6.41006 10.6888C6.55593 10.8556 6.67052 10.9803 6.7538 11.0636L7.06626 11.3635C7.26619 11.5634 7.55977 11.8029 7.94716 12.0819C8.33463 12.3611 8.76359 12.636 9.23426 12.907C9.70502 13.1775 10.2527 13.3982 10.8775 13.569C11.5023 13.7399 12.1104 13.8085 12.7019 13.7754H14.139C14.4304 13.7502 14.6512 13.6586 14.8013 13.5004L14.851 13.4378C14.8844 13.388 14.9157 13.3108 14.9446 13.2068C14.9739 13.1027 14.9884 12.988 14.9884 12.8632C14.9799 12.5051 15.0071 12.1823 15.0695 11.8949C15.1317 11.6076 15.2027 11.391 15.2821 11.2452C15.3615 11.0994 15.451 10.9764 15.5507 10.8767C15.6505 10.7768 15.7217 10.7163 15.7635 10.6954C15.805 10.6745 15.8381 10.6603 15.8631 10.6517C16.063 10.5851 16.2983 10.6496 16.5693 10.8456C16.8401 11.0413 17.0941 11.2831 17.3316 11.5704C17.5691 11.8579 17.8543 12.1805 18.1875 12.5387C18.5209 12.8969 18.8124 13.1633 19.0622 13.3385L19.312 13.4884C19.4788 13.5884 19.6955 13.6801 19.9621 13.7634C20.2282 13.8466 20.4614 13.8675 20.6617 13.8258L23.8605 13.7759C24.1768 13.7759 24.423 13.7236 24.5977 13.6196C24.7726 13.5155 24.8766 13.4008 24.9101 13.276C24.9436 13.1511 24.9454 13.0094 24.9165 12.8509C24.8868 12.6929 24.8576 12.5824 24.8286 12.5199Z" fill="white"/>
</svg>
