<svg width="21" height="16" viewBox="0 0 21 16" fill="none" xmlns="http://www.w3.org/2000/svg">
<path d="M20.438 2.498C20.895 4.28 20.895 8 20.895 8C20.895 8 20.895 11.72 20.438 13.502C20.184 14.487 19.441 15.262 18.5 15.524C16.791 16 10.895 16 10.895 16C10.895 16 5.00202 16 3.29002 15.524C2.34502 15.258 1.60302 14.484 1.35202 13.502C0.89502 11.72 0.89502 8 0.89502 8C0.89502 8 0.89502 4.28 1.35202 2.498C1.60602 1.513 2.34902 0.738 3.29002 0.476C5.00202 -1.78814e-07 10.895 0 10.895 0C10.895 0 16.791 -1.78814e-07 18.5 0.476C19.445 0.742 20.187 1.516 20.438 2.498ZM8.89502 11.5L14.895 8L8.89502 4.5V11.5Z" fill="white"/>
</svg>
