<svg width="127" height="101" viewBox="0 0 127 101" fill="none" xmlns="http://www.w3.org/2000/svg">
<path opacity="0.2" d="M99.6963 101C94.4359 101 89.8435 100.126 85.9191 98.3782C82.0782 96.5472 78.9053 94.1335 76.4004 91.1372C73.8955 88.1409 72.0168 84.6452 70.7643 80.6502C69.5118 76.6551 68.8856 72.4104 68.8856 67.9159C68.8856 58.9271 70.2216 50.8121 72.8935 43.5711C75.6489 36.2468 79.1976 29.7965 83.5395 24.22C87.8813 18.5604 92.6824 13.733 97.9428 9.73795C103.287 5.65966 108.547 2.41368 113.724 0L117.356 4.86897C110.008 11.7771 104.163 17.9361 99.8215 23.3461C95.4796 28.6728 93.3087 33.1257 93.3087 36.7046C93.3087 38.8686 94.2272 40.6164 96.0641 41.9481C97.9011 43.2798 100.155 44.4866 102.827 45.5686C105.416 46.5674 108.13 47.691 110.968 48.9394C113.807 50.1879 116.396 51.8525 118.734 53.9332C121.155 55.9308 123.117 58.4693 124.62 61.5488C126.207 64.6283 127 68.5402 127 73.2843C127 76.1141 126.416 79.152 125.247 82.398C124.161 85.644 122.449 88.6403 120.111 91.3869C117.857 94.1335 115.018 96.4223 111.595 98.2534C108.171 100.084 104.205 101 99.6963 101ZM30.8107 101C25.5503 101 20.9579 100.126 17.0335 98.3782C13.1926 96.5472 10.0197 94.1335 7.51479 91.1372C5.00986 88.1409 3.13116 84.6452 1.8787 80.6502C0.626233 76.6551 0 72.4104 0 67.9159C0 58.9271 1.33596 50.8121 4.00789 43.5711C6.76331 36.2468 10.312 29.7965 14.6538 24.22C18.9957 18.5604 23.7968 13.733 29.0572 9.73795C34.4011 5.65966 39.6614 2.41368 44.8383 0L48.4704 4.86897C41.1226 11.7771 35.2778 17.9361 30.9359 23.3461C26.594 28.6728 24.4231 33.1257 24.4231 36.7046C24.4231 38.8686 25.3416 40.6164 27.1785 41.9481C29.0155 43.2798 31.2699 44.4866 33.9418 45.5686C36.5302 46.5674 39.2439 47.691 42.0828 48.9394C44.9218 50.1879 47.5102 51.8525 49.8481 53.9332C52.2696 55.9308 54.2318 58.4693 55.7347 61.5488C57.3212 64.6283 58.1144 68.5402 58.1144 73.2843C58.1144 76.1141 57.5299 79.152 56.3609 82.398C55.2755 85.644 53.5638 88.6403 51.2258 91.3869C48.9714 94.1335 46.1325 96.4223 42.7091 98.2534C39.2857 100.084 35.3195 101 30.8107 101Z" fill="#5DAEC0"/>
</svg>
