<svg width="24" height="24" viewBox="0 0 24 24" fill="none" xmlns="http://www.w3.org/2000/svg">
<path d="M19.7142 10.2857C19.7142 16.2857 11.9999 21.4286 11.9999 21.4286C11.9999 21.4286 4.28564 16.2857 4.28564 10.2857C4.28564 8.23974 5.0984 6.27758 6.54511 4.83087C7.99182 3.38416 9.95398 2.57141 11.9999 2.57141C14.0459 2.57141 16.008 3.38416 17.4548 4.83087C18.9015 6.27758 19.7142 8.23974 19.7142 10.2857Z" stroke="#F8F8F8" stroke-width="2" stroke-linecap="round"/>
<path d="M11.9999 12.8571C13.4201 12.8571 14.5714 11.7059 14.5714 10.2857C14.5714 8.86554 13.4201 7.71427 11.9999 7.71427C10.5798 7.71427 9.4285 8.86554 9.4285 10.2857C9.4285 11.7059 10.5798 12.8571 11.9999 12.8571Z" stroke="#F8F8F8" stroke-width="2" stroke-linecap="round"/>
</svg>
