<svg width="35" height="35" viewBox="0 0 35 35" fill="none" xmlns="http://www.w3.org/2000/svg">
<path fill-rule="evenodd" clip-rule="evenodd" d="M13.125 2.625H21.875C27.674 2.625 32.375 7.32601 32.375 13.125V21.875C32.375 27.674 27.674 32.375 21.875 32.375H17.7707V21.436H21.3947L21.875 17.0633H17.7707L17.7769 14.8747C17.7769 13.7343 17.889 13.1232 19.5838 13.1232H21.8493V8.75H18.2248C13.8712 8.75 12.3388 10.8712 12.3388 14.4385V17.0638H9.625V21.4365H12.3388V32.346C6.907 31.9439 2.625 27.4095 2.625 21.875V13.125C2.625 7.32601 7.32601 2.625 13.125 2.625ZM0 13.125C0 5.87626 5.87626 0 13.125 0H21.875C29.1237 0 35 5.87626 35 13.125V21.875C35 29.1237 29.1237 35 21.875 35H13.125C5.87626 35 0 29.1237 0 21.875V13.125Z" fill="#201A39"/>
</svg>
