<svg width="35" height="35" viewBox="0 0 35 35" fill="none" xmlns="http://www.w3.org/2000/svg">
<path fill-rule="evenodd" clip-rule="evenodd" d="M21.875 2.625H13.125C7.32601 2.625 2.625 7.32601 2.625 13.125V21.875C2.625 27.674 7.32601 32.375 13.125 32.375H21.875C27.674 32.375 32.375 27.674 32.375 21.875V13.125C32.375 7.32601 27.674 2.625 21.875 2.625ZM13.125 0C5.87626 0 0 5.87626 0 13.125V21.875C0 29.1237 5.87626 35 13.125 35H21.875C29.1237 35 35 29.1237 35 21.875V13.125C35 5.87626 29.1237 0 21.875 0H13.125Z" fill="#201A39"/>
<path fill-rule="evenodd" clip-rule="evenodd" d="M17.5 22.75C20.3995 22.75 22.75 20.3995 22.75 17.5C22.75 14.6005 20.3995 12.25 17.5 12.25C14.6005 12.25 12.25 14.6005 12.25 17.5C12.25 20.3995 14.6005 22.75 17.5 22.75ZM17.5 25.375C21.8492 25.375 25.375 21.8492 25.375 17.5C25.375 13.1508 21.8492 9.625 17.5 9.625C13.1508 9.625 9.625 13.1508 9.625 17.5C9.625 21.8492 13.1508 25.375 17.5 25.375Z" fill="#201A39"/>
<path d="M28 8.75C28 9.7165 27.2165 10.5 26.25 10.5C25.2835 10.5 24.5 9.7165 24.5 8.75C24.5 7.7835 25.2835 7 26.25 7C27.2165 7 28 7.7835 28 8.75Z" fill="#201A39"/>
</svg>
