<svg width="35" height="35" viewBox="0 0 35 35" fill="none" xmlns="http://www.w3.org/2000/svg">
<path fill-rule="evenodd" clip-rule="evenodd" d="M21.875 2.625H13.125C7.32601 2.625 2.625 7.32601 2.625 13.125V21.875C2.625 27.674 7.32601 32.375 13.125 32.375H21.875C27.674 32.375 32.375 27.674 32.375 21.875V13.125C32.375 7.32601 27.674 2.625 21.875 2.625ZM13.125 0C5.87626 0 0 5.87626 0 13.125V21.875C0 29.1237 5.87626 35 13.125 35H21.875C29.1237 35 35 29.1237 35 21.875V13.125C35 5.87626 29.1237 0 21.875 0H13.125Z" fill="#201A39"/>
<path fill-rule="evenodd" clip-rule="evenodd" d="M17.2978 14.6337L17.3281 15.1635L16.8224 15.0987C14.9813 14.85 13.3729 14.0065 12.0073 12.59L11.3396 11.8871L11.1676 12.4062C10.8035 13.5632 11.0361 14.7851 11.7948 15.6069C12.1994 16.061 12.1084 16.1259 11.4104 15.8556C11.1676 15.7691 10.9552 15.7042 10.935 15.7366C10.8642 15.8123 11.1069 16.7963 11.2991 17.1856C11.5622 17.7263 12.0983 18.2561 12.685 18.5697L13.1807 18.8184L12.594 18.8292C12.0275 18.8292 12.0073 18.84 12.0679 19.0671C12.2703 19.77 13.0694 20.5161 13.9596 20.8405L14.5868 21.0675L14.0405 21.4136C13.2313 21.911 12.2804 22.1921 11.3295 22.2137C10.8743 22.2246 10.5 22.2678 10.5 22.3003C10.5 22.4084 11.7341 23.0139 12.4523 23.2518C14.607 23.9547 17.1663 23.6519 19.0883 22.4516C20.4539 21.5974 21.8195 19.8997 22.4568 18.2561C22.8008 17.3802 23.1447 15.7799 23.1447 15.0122C23.1447 14.5147 23.1751 14.4499 23.7415 13.8551C24.0754 13.5091 24.389 13.1307 24.4496 13.0225C24.5508 12.8171 24.5407 12.8171 24.0248 13.0009C23.1649 13.3253 23.0436 13.282 23.4684 12.7954C23.782 12.4494 24.1563 11.8223 24.1563 11.6384C24.1563 11.606 24.0046 11.6601 23.8326 11.7574C23.6505 11.8655 23.2459 12.0277 22.9424 12.125L22.3961 12.3089L21.9005 11.952C21.6273 11.7574 21.2429 11.5411 21.0406 11.4762C20.5247 11.3249 19.7357 11.3465 19.2704 11.5195C18.0059 12.0061 17.2068 13.2604 17.2978 14.6337Z" fill="#201A39"/>
</svg>
