<svg width="35" height="35" viewBox="0 0 35 35" fill="none" xmlns="http://www.w3.org/2000/svg">
<path fill-rule="evenodd" clip-rule="evenodd" d="M21.875 2.625H13.125C7.32601 2.625 2.625 7.32601 2.625 13.125V21.875C2.625 27.674 7.32601 32.375 13.125 32.375H21.875C27.674 32.375 32.375 27.674 32.375 21.875V13.125C32.375 7.32601 27.674 2.625 21.875 2.625ZM13.125 0C5.87626 0 0 5.87626 0 13.125V21.875C0 29.1237 5.87626 35 13.125 35H21.875C29.1237 35 35 29.1237 35 21.875V13.125C35 5.87626 29.1237 0 21.875 0H13.125Z" fill="#201A39"/>
<path fill-rule="evenodd" clip-rule="evenodd" d="M24.1047 12.5979C24.8006 12.7853 25.3493 13.334 25.5366 14.0299C25.8846 15.3012 25.8712 17.9509 25.8712 17.9509C25.8712 17.9509 25.8712 20.5872 25.5366 21.8585C25.3493 22.5544 24.8006 23.1031 24.1047 23.2904C22.8334 23.625 17.7481 23.625 17.7481 23.625C17.7481 23.625 12.6762 23.625 11.3915 23.2771C10.6956 23.0897 10.1469 22.541 9.95956 21.8451C9.625 20.5872 9.625 17.9375 9.625 17.9375C9.625 17.9375 9.625 15.3012 9.95956 14.0299C10.1469 13.334 10.709 12.7719 11.3915 12.5846C12.6628 12.25 17.7481 12.25 17.7481 12.25C17.7481 12.25 22.8334 12.25 24.1047 12.5979ZM20.3577 17.9374L16.1289 20.3729V15.5018L20.3577 17.9374Z" fill="#201A39"/>
</svg>
