<svg width="38" height="30" viewBox="0 0 38 30" fill="none" xmlns="http://www.w3.org/2000/svg">
<path d="M37.4791 10.3563L36.5042 8.66766C36.3024 8.3181 35.8556 8.19829 35.5057 8.40012C35.1561 8.60194 35.0362 9.04902 35.2381 9.39865L36.2131 11.0873C36.2645 11.1764 36.2531 11.2612 36.2416 11.3038C36.2302 11.3464 36.1977 11.4256 36.1087 11.477L33.5306 12.9655C33.3942 13.044 33.2195 12.9971 33.1409 12.861L27.9545 3.87813C27.8758 3.74187 27.9227 3.56701 28.0589 3.48829L30.6369 1.99991C30.7732 1.9214 30.9482 1.96804 31.0267 2.1043L31.9487 3.70115C32.1506 4.05086 32.5976 4.17067 32.9472 3.96869C33.2968 3.76687 33.4167 3.31979 33.2148 2.97016L32.2928 1.37331C31.8112 0.539024 30.7406 0.251964 29.906 0.733761L27.3279 2.22221C26.9363 2.44838 26.6653 2.8043 26.5377 3.20459H19.2293C18.2032 3.20459 17.2385 3.60415 16.5128 4.32973L15.764 5.07856C15.1074 4.92206 14.4348 4.84157 13.7583 4.84157H11.489C11.3756 4.40364 11.094 4.00948 10.6722 3.76592L8.09412 2.27747C7.68988 2.04406 7.21883 1.98215 6.76817 2.10291C6.31737 2.22367 5.94054 2.51285 5.70721 2.91702L0.520892 11.9C0.287559 12.3041 0.225498 12.775 0.346258 13.2259C0.467018 13.6768 0.756199 14.0535 1.16044 14.2869L3.7385 15.7753C4.01299 15.9338 4.31292 16.0091 4.60919 16.0091C4.71715 16.0091 4.82454 15.9986 4.93009 15.979L7.04018 18.0892C7.00787 18.2551 6.99113 18.4252 6.99113 18.598C6.99113 19.3004 7.26466 19.9608 7.76137 20.4575C8.23696 20.933 8.85085 21.1876 9.47475 21.222C9.46517 21.3137 9.45998 21.4062 9.45998 21.4997C9.45998 22.2021 9.73352 22.8625 10.2302 23.3591C10.7269 23.8559 11.3873 24.1294 12.0897 24.1294C12.1088 24.1294 12.1277 24.1284 12.1467 24.128C12.1462 24.147 12.1453 24.1659 12.1453 24.1849C12.1453 24.8874 12.4188 25.5478 12.9155 26.0445C13.4122 26.5412 14.0726 26.8147 14.775 26.8147C14.7941 26.8147 14.813 26.8137 14.832 26.8133C14.8315 26.8323 14.8306 26.8512 14.8306 26.8703C14.8306 27.5727 15.1041 28.2331 15.6008 28.7298C16.0975 29.2264 16.7579 29.5 17.4603 29.5C18.1627 29.5 18.8232 29.2265 19.3198 28.7298L20.3597 27.6899C20.6646 27.385 20.8781 27.023 21.0017 26.6382C21.4637 26.9792 22.0127 27.1497 22.5619 27.1496C23.2352 27.1496 23.9088 26.8933 24.4214 26.3806C24.7281 26.0739 24.9493 25.7047 25.0741 25.3018C25.4972 25.5785 25.9915 25.7273 26.5089 25.7273C27.2113 25.7273 27.8718 25.4538 28.3684 24.9571C28.7375 24.5879 28.9831 24.1284 29.0851 23.6284C29.3491 23.7159 29.6281 23.762 29.9142 23.762C30.6167 23.762 31.2772 23.4885 31.7738 22.9917C32.7991 21.9663 32.7991 20.298 31.7738 19.2726L30.0677 17.5665L33.1819 14.4522C33.2511 14.4605 33.3207 14.4652 33.3907 14.4652C33.687 14.4652 33.987 14.3899 34.2614 14.2315L36.8395 12.7431C37.2436 12.5097 37.5328 12.1329 37.6536 11.6821C37.7745 11.2312 37.7125 10.7605 37.4791 10.3563ZM1.89136 13.0208C1.80232 12.9694 1.76987 12.8902 1.75846 12.8476C1.74706 12.8049 1.73558 12.7201 1.78704 12.631L6.97336 3.64801C7.02475 3.55897 7.10399 3.52652 7.14661 3.51511C7.16481 3.51029 7.19069 3.50539 7.22124 3.50539C7.2624 3.50539 7.31203 3.51424 7.36306 3.54362L9.94112 5.03207C10.0773 5.11072 10.1242 5.28558 10.0456 5.42183L4.85926 14.4048C4.78053 14.541 4.60582 14.5879 4.46949 14.5092L1.89136 13.0208ZM8.45311 18.5979C8.45311 18.2859 8.5746 17.9927 8.79522 17.7721L9.42606 17.1413C9.65369 16.9135 9.95274 16.7997 10.2519 16.7997C10.5508 16.7997 10.85 16.9136 11.0776 17.1413C11.2982 17.3619 11.4197 17.6551 11.4197 17.967C11.4197 18.2789 11.2982 18.5722 11.0776 18.7927L10.4467 19.4236C9.99141 19.879 9.25055 19.8789 8.79522 19.4236C8.5746 19.2031 8.45311 18.9098 8.45311 18.5979ZM12.0898 22.6674C11.7778 22.6674 11.4846 22.5459 11.2641 22.3254C11.0435 22.1048 10.922 21.8116 10.922 21.4997C10.922 21.1877 11.0435 20.8945 11.2641 20.6739L12.3039 19.6341C12.5315 19.4065 12.8306 19.2926 13.1296 19.2926C13.4288 19.2926 13.7278 19.4065 13.9554 19.6341C14.1761 19.8546 14.2975 20.1479 14.2975 20.4598C14.2975 20.7717 14.1761 21.065 13.9554 21.2855L12.9156 22.3254C12.695 22.546 12.4017 22.6674 12.0898 22.6674ZM14.7751 25.3528C14.4631 25.3528 14.1699 25.2313 13.9494 25.0108C13.7288 24.7902 13.6073 24.4969 13.6073 24.185C13.6073 23.8731 13.7288 23.5798 13.9494 23.3592L14.9892 22.3194C15.2168 22.0918 15.5159 21.9779 15.8149 21.9779C16.114 21.9779 16.4131 22.0918 16.6407 22.3195C16.8614 22.54 16.9828 22.8333 16.9828 23.1452C16.9828 23.4571 16.8614 23.7504 16.6407 23.9709L15.6009 25.0108C15.3804 25.2313 15.0871 25.3528 14.7751 25.3528ZM19.326 26.6562L18.2861 27.6961C18.0656 27.9167 17.7724 28.0382 17.4604 28.0382C17.1484 28.0382 16.8552 27.9167 16.6347 27.6961C16.4141 27.4755 16.2926 27.1823 16.2926 26.8704C16.2926 26.5584 16.4141 26.2652 16.6347 26.0446L17.6745 25.0048C17.9021 24.7771 18.2012 24.6632 18.5003 24.6632C18.7993 24.6632 19.0984 24.7771 19.326 25.0047C19.7814 25.4599 19.7814 26.2009 19.326 26.6562ZM30.7402 21.9581C30.5196 22.1787 30.2264 22.3002 29.9144 22.3002C29.6025 22.3002 29.3093 22.1787 29.0887 21.9581L22.1113 14.9807C21.8259 14.6954 21.3632 14.6953 21.0775 14.9807C20.792 15.2662 20.792 15.729 21.0775 16.0145L27.3348 22.2719C27.5554 22.4924 27.6769 22.7857 27.6769 23.0976C27.6769 23.4095 27.5554 23.7028 27.3348 23.9234C27.1143 24.1439 26.8211 24.2654 26.5091 24.2654C26.1971 24.2654 25.9039 24.1439 25.6833 23.9234L18.1643 16.4043C17.8788 16.119 17.416 16.119 17.1304 16.4043C16.845 16.6898 16.845 17.1527 17.1304 17.4381L23.3877 23.6955C23.6083 23.916 23.7298 24.2093 23.7298 24.5212C23.7298 24.8331 23.6083 25.1264 23.3877 25.3469C22.9325 25.8023 22.1916 25.8024 21.7362 25.3469L20.36 23.9708C20.3581 23.9689 20.356 23.9673 20.3541 23.9654C19.8276 23.4421 19.1332 23.1885 18.4434 23.2034C18.4439 23.184 18.4448 23.1647 18.4448 23.1452C18.4448 22.4428 18.1713 21.7823 17.6746 21.2856C17.1475 20.7585 16.4504 20.5032 15.7581 20.518C15.7585 20.4986 15.7595 20.4793 15.7595 20.4599C15.7595 19.7574 15.4859 19.097 14.9892 18.6003C14.4127 18.0239 13.633 17.7716 12.8786 17.8433C12.8484 17.1874 12.5788 16.575 12.1114 16.1076C11.086 15.0822 9.41758 15.0824 8.39222 16.1076L7.76137 16.7384C7.76064 16.7391 7.75991 16.7399 7.75918 16.7407L6.13594 15.1174L11.2246 6.30356H13.7582C14.0065 6.30356 14.254 6.31672 14.5002 6.3423L13.6646 7.1779C13.1679 7.67461 12.8944 8.33506 12.8944 9.03747C12.8944 9.73995 13.1679 10.4003 13.6646 10.897C14.1774 11.4097 14.8508 11.666 15.5241 11.666C16.1976 11.666 16.8711 11.4098 17.3837 10.897L19.3571 8.92365L30.7401 20.3066C31.1955 20.7619 31.1955 21.5028 30.7402 21.9581ZM23.717 11.2158C24.7807 10.4459 25.4328 9.20348 25.4328 7.8537C25.4328 7.44997 25.1054 7.12271 24.7018 7.12271C24.2981 7.12271 23.9708 7.44997 23.9708 7.8537C23.9708 8.8086 23.4664 9.67957 22.6616 10.1605L19.8774 7.37629C19.5919 7.09084 19.1298 7.08338 18.8443 7.36883L16.35 9.8632C15.8946 10.3185 15.1538 10.3185 14.6984 9.8632C14.4778 9.64266 14.3563 9.34939 14.3563 9.03747C14.3563 8.72556 14.4778 8.43228 14.6984 8.21167L17.5466 5.3635C17.996 4.91409 18.5936 4.66657 19.2293 4.66657H26.7216L31.8747 13.5921C31.8869 13.6133 31.9002 13.6334 31.9131 13.6538L29.0341 16.5328L23.717 11.2158Z" fill="white"/>
</svg>
